<mxfile host="app.diagrams.net" modified="2022-05-29T14:33:33.803Z" agent="5.0 (Macintosh; Intel Mac OS X 10_15_7) AppleWebKit/537.36 (KHTML, like Gecko) Chrome/101.0.4951.64 Safari/537.36" etag="w8JwBKUqtU7YyImMXio0" version="18.1.3" type="github">
  <diagram id="ESkz_dFeLRZQO63baPD1" name="Page-1">
    <mxGraphModel dx="2125" dy="777" grid="1" gridSize="10" guides="1" tooltips="1" connect="1" arrows="1" fold="1" page="1" pageScale="1" pageWidth="827" pageHeight="1169" math="0" shadow="0">
      <root>
        <mxCell id="0" />
        <mxCell id="1" parent="0" />
        <mxCell id="vXINQ-Z0MnHQ8WJaHOT2-9" value="" style="swimlane;startSize=0;" vertex="1" parent="1">
          <mxGeometry x="-30" y="290" width="800" height="610" as="geometry" />
        </mxCell>
        <mxCell id="vXINQ-Z0MnHQ8WJaHOT2-10" value="Address Detector" style="text;html=1;align=center;verticalAlign=middle;resizable=0;points=[];autosize=1;strokeColor=none;fillColor=none;" vertex="1" parent="vXINQ-Z0MnHQ8WJaHOT2-9">
          <mxGeometry x="20" width="110" height="20" as="geometry" />
        </mxCell>
        <mxCell id="vXINQ-Z0MnHQ8WJaHOT2-6" value="UI" style="text;html=1;align=center;verticalAlign=middle;resizable=0;points=[];autosize=1;strokeColor=none;fillColor=none;" vertex="1" parent="vXINQ-Z0MnHQ8WJaHOT2-9">
          <mxGeometry x="20" y="40" width="30" height="20" as="geometry" />
        </mxCell>
        <mxCell id="vXINQ-Z0MnHQ8WJaHOT2-11" value="&lt;ul&gt;&lt;li&gt;нормализация строки&lt;/li&gt;&lt;li&gt;нормализация строк файла&lt;/li&gt;&lt;/ul&gt;" style="text;html=1;align=left;verticalAlign=middle;resizable=0;points=[];autosize=1;strokeColor=none;fillColor=none;" vertex="1" parent="vXINQ-Z0MnHQ8WJaHOT2-9">
          <mxGeometry y="50" width="210" height="60" as="geometry" />
        </mxCell>
        <mxCell id="vXINQ-Z0MnHQ8WJaHOT2-107" style="edgeStyle=orthogonalEdgeStyle;rounded=0;orthogonalLoop=1;jettySize=auto;html=1;entryX=0.873;entryY=1.021;entryDx=0;entryDy=0;entryPerimeter=0;fontColor=#4D4D4D;" edge="1" parent="vXINQ-Z0MnHQ8WJaHOT2-9" source="vXINQ-Z0MnHQ8WJaHOT2-15" target="vXINQ-Z0MnHQ8WJaHOT2-4">
          <mxGeometry relative="1" as="geometry">
            <Array as="points">
              <mxPoint x="212" y="140" />
              <mxPoint x="212" y="140" />
            </Array>
          </mxGeometry>
        </mxCell>
        <mxCell id="vXINQ-Z0MnHQ8WJaHOT2-15" value="" style="swimlane;startSize=0;" vertex="1" parent="vXINQ-Z0MnHQ8WJaHOT2-9">
          <mxGeometry x="40" y="150" width="310" height="80" as="geometry" />
        </mxCell>
        <mxCell id="vXINQ-Z0MnHQ8WJaHOT2-16" value="API" style="text;html=1;align=center;verticalAlign=middle;resizable=0;points=[];autosize=1;strokeColor=none;fillColor=none;" vertex="1" parent="vXINQ-Z0MnHQ8WJaHOT2-15">
          <mxGeometry x="10" y="10" width="30" height="20" as="geometry" />
        </mxCell>
        <mxCell id="vXINQ-Z0MnHQ8WJaHOT2-17" value="&lt;ul&gt;&lt;li&gt;нормализация строки /api/normalize/string&lt;/li&gt;&lt;li&gt;нормализация строк файла /api/normalize/file&lt;/li&gt;&lt;/ul&gt;" style="text;html=1;align=left;verticalAlign=middle;resizable=0;points=[];autosize=1;strokeColor=none;fillColor=none;" vertex="1" parent="vXINQ-Z0MnHQ8WJaHOT2-15">
          <mxGeometry x="-10" y="20" width="310" height="60" as="geometry" />
        </mxCell>
        <mxCell id="vXINQ-Z0MnHQ8WJaHOT2-106" style="edgeStyle=orthogonalEdgeStyle;rounded=0;orthogonalLoop=1;jettySize=auto;html=1;entryX=0.887;entryY=1.025;entryDx=0;entryDy=0;entryPerimeter=0;fontColor=#4D4D4D;" edge="1" parent="vXINQ-Z0MnHQ8WJaHOT2-9" source="vXINQ-Z0MnHQ8WJaHOT2-18" target="vXINQ-Z0MnHQ8WJaHOT2-17">
          <mxGeometry relative="1" as="geometry" />
        </mxCell>
        <mxCell id="vXINQ-Z0MnHQ8WJaHOT2-18" value="" style="swimlane;startSize=0;" vertex="1" parent="vXINQ-Z0MnHQ8WJaHOT2-9">
          <mxGeometry x="150" y="270" width="420" height="75" as="geometry" />
        </mxCell>
        <mxCell id="vXINQ-Z0MnHQ8WJaHOT2-21" value="Модуль предобработки строки" style="text;html=1;align=center;verticalAlign=middle;resizable=0;points=[];autosize=1;strokeColor=none;fillColor=none;" vertex="1" parent="vXINQ-Z0MnHQ8WJaHOT2-18">
          <mxGeometry y="10" width="190" height="20" as="geometry" />
        </mxCell>
        <mxCell id="vXINQ-Z0MnHQ8WJaHOT2-22" value="&lt;ul&gt;&lt;li&gt;&lt;font color=&quot;#4d4d4d&quot;&gt;Изьятие из строки заведомо не пренадлежащих символов/слов&lt;br&gt;&lt;/font&gt;&lt;/li&gt;&lt;li&gt;&lt;font color=&quot;#4d4d4d&quot;&gt;Замена заведомо известных сочетании&lt;/font&gt;&lt;/li&gt;&lt;/ul&gt;&lt;div style=&quot;&quot;&gt;&lt;/div&gt;" style="text;html=1;align=left;verticalAlign=middle;resizable=0;points=[];autosize=1;strokeColor=none;fillColor=none;fontStyle=2" vertex="1" parent="vXINQ-Z0MnHQ8WJaHOT2-18">
          <mxGeometry x="-20" y="20" width="420" height="60" as="geometry" />
        </mxCell>
        <mxCell id="vXINQ-Z0MnHQ8WJaHOT2-27" style="edgeStyle=orthogonalEdgeStyle;rounded=0;orthogonalLoop=1;jettySize=auto;html=1;entryX=0.167;entryY=0;entryDx=0;entryDy=0;entryPerimeter=0;" edge="1" parent="vXINQ-Z0MnHQ8WJaHOT2-9" source="vXINQ-Z0MnHQ8WJaHOT2-17" target="vXINQ-Z0MnHQ8WJaHOT2-18">
          <mxGeometry relative="1" as="geometry" />
        </mxCell>
        <mxCell id="vXINQ-Z0MnHQ8WJaHOT2-4" value="" style="swimlane;startSize=0;" vertex="1" parent="vXINQ-Z0MnHQ8WJaHOT2-9">
          <mxGeometry x="20" y="30" width="220" height="70" as="geometry" />
        </mxCell>
        <mxCell id="vXINQ-Z0MnHQ8WJaHOT2-26" style="edgeStyle=orthogonalEdgeStyle;rounded=0;orthogonalLoop=1;jettySize=auto;html=1;entryX=0.5;entryY=0;entryDx=0;entryDy=0;" edge="1" parent="vXINQ-Z0MnHQ8WJaHOT2-9" source="vXINQ-Z0MnHQ8WJaHOT2-4" target="vXINQ-Z0MnHQ8WJaHOT2-15">
          <mxGeometry relative="1" as="geometry" />
        </mxCell>
        <mxCell id="vXINQ-Z0MnHQ8WJaHOT2-103" style="edgeStyle=orthogonalEdgeStyle;rounded=0;orthogonalLoop=1;jettySize=auto;html=1;entryX=0.643;entryY=0.992;entryDx=0;entryDy=0;entryPerimeter=0;fontColor=#4D4D4D;" edge="1" parent="vXINQ-Z0MnHQ8WJaHOT2-9" source="vXINQ-Z0MnHQ8WJaHOT2-90" target="vXINQ-Z0MnHQ8WJaHOT2-22">
          <mxGeometry relative="1" as="geometry" />
        </mxCell>
        <mxCell id="vXINQ-Z0MnHQ8WJaHOT2-90" value="" style="swimlane;startSize=0;" vertex="1" parent="vXINQ-Z0MnHQ8WJaHOT2-9">
          <mxGeometry x="44" y="370" width="716" height="160" as="geometry" />
        </mxCell>
        <mxCell id="vXINQ-Z0MnHQ8WJaHOT2-91" value="Модуль поиска данных" style="text;html=1;align=center;verticalAlign=middle;resizable=0;points=[];autosize=1;strokeColor=none;fillColor=none;" vertex="1" parent="vXINQ-Z0MnHQ8WJaHOT2-90">
          <mxGeometry x="20" y="10" width="150" height="20" as="geometry" />
        </mxCell>
        <mxCell id="vXINQ-Z0MnHQ8WJaHOT2-92" value="&lt;div&gt;&lt;br&gt;&lt;/div&gt;&lt;div style=&quot;&quot;&gt;&lt;/div&gt;" style="text;html=1;align=left;verticalAlign=middle;resizable=0;points=[];autosize=1;strokeColor=none;fillColor=none;fontStyle=2" vertex="1" parent="vXINQ-Z0MnHQ8WJaHOT2-90">
          <mxGeometry y="40" width="20" height="20" as="geometry" />
        </mxCell>
        <mxCell id="vXINQ-Z0MnHQ8WJaHOT2-31" value="" style="swimlane;startSize=0;" vertex="1" parent="vXINQ-Z0MnHQ8WJaHOT2-90">
          <mxGeometry x="20" y="50" width="290" height="80" as="geometry" />
        </mxCell>
        <mxCell id="vXINQ-Z0MnHQ8WJaHOT2-32" value="Модуль поиска данных в БД" style="text;html=1;align=center;verticalAlign=middle;resizable=0;points=[];autosize=1;strokeColor=none;fillColor=none;" vertex="1" parent="vXINQ-Z0MnHQ8WJaHOT2-31">
          <mxGeometry x="5" y="10" width="180" height="20" as="geometry" />
        </mxCell>
        <mxCell id="vXINQ-Z0MnHQ8WJaHOT2-33" value="&lt;ul&gt;&lt;li&gt;Поиск основных аттрибутов адреса в БД&amp;nbsp;&lt;/li&gt;&lt;/ul&gt;&lt;div style=&quot;&quot;&gt;&lt;/div&gt;" style="text;html=1;align=left;verticalAlign=middle;resizable=0;points=[];autosize=1;strokeColor=none;fillColor=none;fontStyle=2" vertex="1" parent="vXINQ-Z0MnHQ8WJaHOT2-31">
          <mxGeometry y="30" width="290" height="40" as="geometry" />
        </mxCell>
        <mxCell id="vXINQ-Z0MnHQ8WJaHOT2-28" value="" style="swimlane;startSize=0;" vertex="1" parent="vXINQ-Z0MnHQ8WJaHOT2-90">
          <mxGeometry x="436" y="50" width="170" height="80" as="geometry" />
        </mxCell>
        <mxCell id="vXINQ-Z0MnHQ8WJaHOT2-29" value="Модуль НС (OpneNMT)" style="text;html=1;align=center;verticalAlign=middle;resizable=0;points=[];autosize=1;strokeColor=none;fillColor=none;" vertex="1" parent="vXINQ-Z0MnHQ8WJaHOT2-28">
          <mxGeometry y="10" width="150" height="20" as="geometry" />
        </mxCell>
        <mxCell id="vXINQ-Z0MnHQ8WJaHOT2-30" value="&lt;ul&gt;&lt;li&gt;Поиск номера дома&lt;/li&gt;&lt;li&gt;Поиск квартиры&lt;/li&gt;&lt;li&gt;Поиск корпуса&lt;/li&gt;&lt;/ul&gt;&lt;div style=&quot;&quot;&gt;&lt;/div&gt;" style="text;html=1;align=left;verticalAlign=middle;resizable=0;points=[];autosize=1;strokeColor=none;fillColor=none;fontStyle=2" vertex="1" parent="vXINQ-Z0MnHQ8WJaHOT2-28">
          <mxGeometry y="15" width="170" height="70" as="geometry" />
        </mxCell>
        <mxCell id="vXINQ-Z0MnHQ8WJaHOT2-102" value="&lt;font color=&quot;#4d4d4d&quot;&gt;Поиск и объединение данных различных источников (БД, НС)&lt;/font&gt;" style="text;html=1;align=left;verticalAlign=middle;resizable=0;points=[];autosize=1;strokeColor=none;fillColor=none;fontStyle=2;labelBackgroundColor=none;fontColor=#B3B3B3;" vertex="1" parent="vXINQ-Z0MnHQ8WJaHOT2-90">
          <mxGeometry x="170" y="10" width="370" height="20" as="geometry" />
        </mxCell>
        <mxCell id="vXINQ-Z0MnHQ8WJaHOT2-101" style="edgeStyle=orthogonalEdgeStyle;rounded=0;orthogonalLoop=1;jettySize=auto;html=1;entryX=0.413;entryY=0;entryDx=0;entryDy=0;entryPerimeter=0;" edge="1" parent="vXINQ-Z0MnHQ8WJaHOT2-9" source="vXINQ-Z0MnHQ8WJaHOT2-22" target="vXINQ-Z0MnHQ8WJaHOT2-90">
          <mxGeometry relative="1" as="geometry" />
        </mxCell>
        <mxCell id="vXINQ-Z0MnHQ8WJaHOT2-100" style="edgeStyle=orthogonalEdgeStyle;rounded=0;orthogonalLoop=1;jettySize=auto;html=1;entryX=0.338;entryY=0.994;entryDx=0;entryDy=0;entryPerimeter=0;" edge="1" parent="1" source="vXINQ-Z0MnHQ8WJaHOT2-40" target="vXINQ-Z0MnHQ8WJaHOT2-31">
          <mxGeometry relative="1" as="geometry" />
        </mxCell>
        <mxCell id="vXINQ-Z0MnHQ8WJaHOT2-40" value="Postgre" style="shape=cylinder3;whiteSpace=wrap;html=1;boundedLbl=1;backgroundOutline=1;size=15;" vertex="1" parent="1">
          <mxGeometry x="110" y="930" width="60" height="80" as="geometry" />
        </mxCell>
        <mxCell id="vXINQ-Z0MnHQ8WJaHOT2-95" style="edgeStyle=orthogonalEdgeStyle;rounded=0;orthogonalLoop=1;jettySize=auto;html=1;entryX=0.553;entryY=1.007;entryDx=0;entryDy=0;entryPerimeter=0;" edge="1" parent="1" source="vXINQ-Z0MnHQ8WJaHOT2-54" target="vXINQ-Z0MnHQ8WJaHOT2-30">
          <mxGeometry relative="1" as="geometry">
            <Array as="points">
              <mxPoint x="544" y="900" />
              <mxPoint x="544" y="900" />
            </Array>
          </mxGeometry>
        </mxCell>
        <mxCell id="vXINQ-Z0MnHQ8WJaHOT2-54" value="OpenNMT (НС)" style="shape=cube;whiteSpace=wrap;html=1;boundedLbl=1;backgroundOutline=1;darkOpacity=0.05;darkOpacity2=0.1;" vertex="1" parent="1">
          <mxGeometry x="470" y="930" width="120" height="80" as="geometry" />
        </mxCell>
        <mxCell id="vXINQ-Z0MnHQ8WJaHOT2-93" style="edgeStyle=orthogonalEdgeStyle;rounded=0;orthogonalLoop=1;jettySize=auto;html=1;" edge="1" parent="1" source="vXINQ-Z0MnHQ8WJaHOT2-30" target="vXINQ-Z0MnHQ8WJaHOT2-54">
          <mxGeometry relative="1" as="geometry">
            <Array as="points">
              <mxPoint x="530" y="830" />
              <mxPoint x="530" y="830" />
            </Array>
          </mxGeometry>
        </mxCell>
        <mxCell id="vXINQ-Z0MnHQ8WJaHOT2-99" style="edgeStyle=orthogonalEdgeStyle;rounded=0;orthogonalLoop=1;jettySize=auto;html=1;entryX=0.855;entryY=0;entryDx=0;entryDy=4.35;entryPerimeter=0;" edge="1" parent="1" source="vXINQ-Z0MnHQ8WJaHOT2-33" target="vXINQ-Z0MnHQ8WJaHOT2-40">
          <mxGeometry relative="1" as="geometry" />
        </mxCell>
      </root>
    </mxGraphModel>
  </diagram>
</mxfile>
